<svg width="64" height="64" viewBox="0 0 64 64" fill="none" xmlns="http://www.w3.org/2000/svg">
<line x1="61" x2="61" y2="16" stroke="#B443A8" stroke-width="6"/>
<line x1="61" y1="48" x2="61" y2="64" stroke="#B443A8" stroke-width="6"/>
<line x1="47.9904" y1="61.0512" x2="63.9903" y2="61" stroke="#B443A8" stroke-width="6"/>
<line x1="47.9904" y1="3.05122" x2="63.9903" y2="3.00002" stroke="#B443A8" stroke-width="6"/>
<line x1="3" x2="3" y2="16" stroke="#B443A8" stroke-width="6"/>
<line x1="-0.00960097" y1="3.05122" x2="15.9903" y2="3.00002" stroke="#B443A8" stroke-width="6"/>
<line x1="3" y1="48" x2="3" y2="64" stroke="#B443A8" stroke-width="6"/>
<line x1="-0.00960097" y1="61.0512" x2="15.9903" y2="61" stroke="#B443A8" stroke-width="6"/>
<path d="M28.116 49.94H18.072L16.92 44.54C12.12 44.54 9.72 41.276 9.72 34.748V30.536C9.72 28.616 9.936 27.008 10.368 25.712C10.8 24.392 11.292 23.408 11.844 22.76C12.396 22.088 13.248 21.584 14.4 21.248C15.552 20.912 16.512 20.72 17.28 20.672C18.048 20.624 18.996 20.6 20.124 20.6C21.276 20.6 22.044 20.612 22.428 20.636C22.812 20.636 23.34 20.66 24.012 20.708C24.708 20.756 25.236 20.84 25.596 20.96C25.956 21.08 26.4 21.26 26.928 21.5C27.48 21.716 27.9 21.992 28.188 22.328C28.5 22.64 28.824 23.048 29.16 23.552C29.52 24.056 29.784 24.632 29.952 25.28C30.384 26.792 30.6 28.544 30.6 30.536V34.748C30.6 41.276 28.2 44.54 23.4 44.54L24.264 48.572H28.116V49.94ZM22.86 42.056V23.156H17.46V42.056H22.86ZM41.7282 44H32.4042V42.632H33.9882V22.508H32.4042V21.14H45.0762C47.4762 21.14 48.9762 21.2 49.5762 21.32C50.1762 21.44 50.7402 21.584 51.2682 21.752C51.7962 21.896 52.2042 22.088 52.4922 22.328C52.8042 22.544 53.1282 22.82 53.4642 23.156C53.8002 23.492 54.0522 23.888 54.2202 24.344C54.6522 25.376 54.8682 26.564 54.8682 27.908C54.8682 30.092 54.4122 31.676 53.5002 32.66C52.5882 33.644 51.2802 34.268 49.5762 34.532V35.36H51.1962C52.0122 35.36 52.5762 35.516 52.8882 35.828C53.2002 36.116 53.4042 36.68 53.5002 37.52L54.1122 42.632H56.0202V44H47.1282V36.44H41.7282V44ZM47.1282 33.848V23.66H41.7282V33.848H47.1282Z" fill="#B443A8"/>
</svg>
