<svg xmlns="http://www.w3.org/2000/svg" viewBox="0 0 24 24" style="enable-background:new 0 0 24 24" xml:space="preserve"><path d="M20 23h-9c-1.7 0-3-1.3-3-3v-9c0-1.7 1.3-3 3-3h9c1.7 0 3 1.3 3 3v9c0 1.7-1.3 3-3 3zm-9-13c-.6 0-1 .4-1 1v9c0 .6.4 1 1 1h9c.6 0 1-.4 1-1v-9c0-.6-.4-1-1-1h-9zm-5 5c0-.6-.4-1-1-1H4c-.3 0-.5-.1-.7-.3-.2-.2-.3-.4-.3-.7V4c0-.3.1-.5.3-.7.2-.2.4-.3.7-.3h9c.3 0 .5.1.7.3.2.2.3.4.3.7v1c0 .6.4 1 1 1s1-.4 1-1V4c0-.8-.3-1.6-.9-2.1-.5-.6-1.3-.9-2.1-.9H4c-.8 0-1.6.3-2.1.9C1.3 2.4 1 3.2 1 4v9c0 .8.3 1.6.9 2.1.5.6 1.3.9 2.1.9h1c.6 0 1-.4 1-1z"/></svg>