<svg width="25" height="24" viewBox="0 0 25 24" fill="none" xmlns="http://www.w3.org/2000/svg">
<path fill-rule="evenodd" clip-rule="evenodd" d="M18.5 3C17.3954 3 16.5 3.89543 16.5 5C16.5 6.10457 17.3954 7 18.5 7C19.6046 7 20.5 6.10457 20.5 5C20.5 3.89543 19.6046 3 18.5 3ZM14.5 5C14.5 2.79086 16.2909 1 18.5 1C20.7091 1 22.5 2.79086 22.5 5C22.5 7.20914 20.7091 9 18.5 9C16.2909 9 14.5 7.20914 14.5 5Z" fill="black"/>
<path fill-rule="evenodd" clip-rule="evenodd" d="M6.5 10C5.39543 10 4.5 10.8954 4.5 12C4.5 13.1046 5.39543 14 6.5 14C7.60457 14 8.5 13.1046 8.5 12C8.5 10.8954 7.60457 10 6.5 10ZM2.5 12C2.5 9.79086 4.29086 8 6.5 8C8.70914 8 10.5 9.79086 10.5 12C10.5 14.2091 8.70914 16 6.5 16C4.29086 16 2.5 14.2091 2.5 12Z" fill="black"/>
<path fill-rule="evenodd" clip-rule="evenodd" d="M18.5 17C17.3954 17 16.5 17.8954 16.5 19C16.5 20.1046 17.3954 21 18.5 21C19.6046 21 20.5 20.1046 20.5 19C20.5 17.8954 19.6046 17 18.5 17ZM14.5 19C14.5 16.7909 16.2909 15 18.5 15C20.7091 15 22.5 16.7909 22.5 19C22.5 21.2091 20.7091 23 18.5 23C16.2909 23 14.5 21.2091 14.5 19Z" fill="black"/>
<path fill-rule="evenodd" clip-rule="evenodd" d="M8.226 13.0065C8.50406 12.5293 9.11631 12.3679 9.59348 12.6459L16.4235 16.6259C16.9007 16.904 17.0621 17.5162 16.784 17.9934C16.506 18.4706 15.8937 18.632 15.4165 18.3539L8.58653 14.3739C8.10935 14.0959 7.94794 13.4836 8.226 13.0065Z" fill="black"/>
<path fill-rule="evenodd" clip-rule="evenodd" d="M16.7737 6.0059C17.0521 6.4829 16.891 7.09525 16.414 7.37362L9.59403 11.3536C9.11703 11.632 8.50469 11.471 8.22632 10.994C7.94795 10.517 8.10898 9.90461 8.58598 9.62624L15.406 5.64624C15.883 5.36787 16.4953 5.5289 16.7737 6.0059Z" fill="black"/>
</svg>
