<svg width="162" height="48" viewBox="0 0 162 48" fill="none" xmlns="http://www.w3.org/2000/svg">
<path d="M1.14286 0C0.495238 0 0 0.495238 0 1.14286V46.8571C0 47.5048 0.495238 48 1.14286 48H46.8571C47.5048 48 48 47.5048 48 46.8571V1.14286C48 0.495238 47.5048 0 46.8571 0H1.14286ZM8.7619 7.61905H16.381C17.0286 7.61905 17.5238 8.11429 17.5238 8.7619V16.381C17.5238 17.0286 17.0286 17.5238 16.381 17.5238H8.7619C8.11429 17.5238 7.61905 17.0286 7.61905 16.381V8.7619C7.61905 8.11429 8.11429 7.61905 8.7619 7.61905ZM26.2857 7.61905C26.9333 7.61905 27.4286 8.11429 27.4286 8.7619V16.381C27.4286 17.0286 26.9333 17.5238 26.2857 17.5238H22.8571V24C22.8571 24.6476 22.3619 25.1429 21.7143 25.1429H18.2857C17.6381 25.1429 17.1429 24.6476 17.1429 24C17.1429 23.3524 17.6381 22.8571 18.2857 22.8571H20.5714V16.381C20.5714 15.7333 21.0667 15.2381 21.7143 15.2381H25.1429V8.7619C25.1429 8.11429 25.6381 7.61905 26.2857 7.61905ZM31.619 7.61905H39.2381C39.8857 7.61905 40.381 8.11429 40.381 8.7619V16.381C40.381 17.0286 39.8857 17.5238 39.2381 17.5238H31.619C30.9714 17.5238 30.4762 17.0286 30.4762 16.381V8.7619C30.4762 8.11429 30.9714 7.61905 31.619 7.61905ZM9.90476 9.90476V15.2381H15.2381V9.90476H9.90476ZM32.7619 9.90476V15.2381H38.0952V9.90476H32.7619ZM29.7143 20.5714H34.2857C34.9333 20.5714 35.4286 21.0667 35.4286 21.7143V25.1429H39.2381C39.8857 25.1429 40.381 25.6381 40.381 26.2857C40.381 26.9333 39.8857 27.4286 39.2381 27.4286H34.2857C33.6381 27.4286 33.1429 26.9333 33.1429 26.2857V22.8571H29.7143C29.0667 22.8571 28.5714 22.3619 28.5714 21.7143C28.5714 21.0667 29.0667 20.5714 29.7143 20.5714ZM8.7619 22.8571H10.6667C11.3143 22.8571 11.8095 23.3524 11.8095 24C11.8095 24.6476 11.3143 25.1429 10.6667 25.1429H8.7619C8.11429 25.1429 7.61905 24.6476 7.61905 24C7.61905 23.3524 8.11429 22.8571 8.7619 22.8571ZM26.2857 26.6667C26.9333 26.6667 27.4286 27.1619 27.4286 27.8095V35.4286C27.4286 36.0762 26.9333 36.5714 26.2857 36.5714H22.8571V39.2381C22.8571 39.8857 22.3619 40.381 21.7143 40.381C21.0667 40.381 20.5714 39.8857 20.5714 39.2381V35.4286C20.5714 34.781 21.0667 34.2857 21.7143 34.2857H25.1429V27.8095C25.1429 27.1619 25.6381 26.6667 26.2857 26.6667ZM8.7619 30.4762H16.381C17.0286 30.4762 17.5238 30.9714 17.5238 31.619V39.2381C17.5238 39.8857 17.0286 40.381 16.381 40.381H8.7619C8.11429 40.381 7.61905 39.8857 7.61905 39.2381V31.619C7.61905 30.9714 8.11429 30.4762 8.7619 30.4762ZM31.619 30.4762H39.2381C39.8857 30.4762 40.381 30.9714 40.381 31.619V39.2381C40.381 39.8857 39.8857 40.381 39.2381 40.381H31.619C30.9714 40.381 30.4762 39.8857 30.4762 39.2381V31.619C30.4762 30.9714 30.9714 30.4762 31.619 30.4762ZM9.90476 32.7619V38.0952H15.2381V32.7619H9.90476ZM32.7619 32.7619V38.0952H38.0952V32.7619H32.7619Z" fill="url(#gradient)"/>
<path d="M75.088 35.128C74 35.128 73.144 34.976 72.52 34.672C71.912 34.384 71.488 33.944 71.248 33.352C71.008 32.76 70.88 32.024 70.864 31.144C68.864 30.904 67.344 30.152 66.304 28.888C65.264 27.608 64.744 25.76 64.744 23.344C64.744 20.48 65.4 18.424 66.712 17.176C68.024 15.928 69.936 15.304 72.448 15.304C74.96 15.304 76.872 15.928 78.184 17.176C79.496 18.424 80.152 20.48 80.152 23.344C80.152 25.712 79.648 27.528 78.64 28.792C77.648 30.056 76.2 30.824 74.296 31.096C74.296 31.608 74.384 31.96 74.56 32.152C74.752 32.36 75.072 32.464 75.52 32.464C76.016 32.464 76.52 32.4 77.032 32.272V34.888C76.792 34.952 76.472 35.008 76.072 35.056C75.688 35.104 75.36 35.128 75.088 35.128ZM72.448 27.952C73.744 27.952 74.688 27.584 75.28 26.848C75.888 26.096 76.192 24.928 76.192 23.344C76.192 21.616 75.888 20.4 75.28 19.696C74.688 18.976 73.744 18.616 72.448 18.616C71.136 18.616 70.176 18.976 69.568 19.696C68.976 20.4 68.68 21.616 68.68 23.344C68.68 24.928 68.976 26.096 69.568 26.848C70.176 27.584 71.136 27.952 72.448 27.952Z" fill="white"/>
<path d="M82.1225 31V15.544H89.8505C91.6745 15.544 93.0185 16.024 93.8825 16.984C94.7465 17.944 95.1785 19.232 95.1785 20.848C95.1785 21.888 94.9145 22.8 94.3865 23.584C93.8585 24.368 93.1385 24.952 92.2265 25.336C92.4505 25.512 92.6265 25.712 92.7545 25.936C92.8985 26.144 93.0505 26.44 93.2105 26.824L95.0345 31H91.0025L89.2745 27.064C89.1305 26.728 88.9465 26.488 88.7225 26.344C88.4985 26.184 88.1785 26.104 87.7625 26.104H85.9865V31H82.1225ZM85.9865 23.128H88.8425C89.5945 23.128 90.1785 22.944 90.5945 22.576C91.0265 22.192 91.2425 21.616 91.2425 20.848C91.2425 19.296 90.4985 18.52 89.0105 18.52H85.9865V23.128Z" fill="white"/>
<path d="M106.526 31.24C105.614 31.24 104.75 31.176 103.934 31.048C103.118 30.92 102.47 30.76 101.99 30.568V27.616C102.55 27.856 103.198 28.04 103.934 28.168C104.67 28.296 105.326 28.36 105.902 28.36C106.59 28.36 107.086 28.328 107.39 28.264C107.71 28.2 107.87 28.024 107.87 27.736C107.87 27.416 107.614 27.176 107.102 27.016C106.59 26.856 105.886 26.624 104.99 26.32C103.95 25.952 103.158 25.528 102.614 25.048C102.086 24.552 101.822 23.824 101.822 22.864C101.822 21.744 102.238 20.888 103.07 20.296C103.918 19.688 105.262 19.384 107.102 19.384C107.822 19.384 108.534 19.44 109.238 19.552C109.942 19.664 110.518 19.792 110.966 19.936V22.84C110.518 22.632 110.006 22.48 109.43 22.384C108.854 22.288 108.334 22.24 107.87 22.24C107.278 22.24 106.774 22.28 106.358 22.36C105.958 22.424 105.758 22.592 105.758 22.864C105.758 23.168 105.982 23.384 106.43 23.512C106.878 23.624 107.526 23.816 108.374 24.088C109.27 24.36 109.966 24.656 110.462 24.976C110.958 25.28 111.31 25.648 111.518 26.08C111.726 26.512 111.83 27.056 111.83 27.712C111.83 28.848 111.382 29.72 110.486 30.328C109.59 30.936 108.27 31.24 106.526 31.24Z" fill="white"/>
<path d="M113.787 31V14.824H117.651V20.464C118.083 20.144 118.619 19.888 119.259 19.696C119.899 19.488 120.587 19.384 121.323 19.384C122.843 19.384 123.955 19.744 124.659 20.464C125.379 21.184 125.739 22.288 125.739 23.776V31H121.875V24.04C121.875 23.384 121.739 22.92 121.467 22.648C121.195 22.376 120.707 22.24 120.003 22.24C119.587 22.24 119.163 22.336 118.731 22.528C118.299 22.72 117.939 22.96 117.651 23.248V31H113.787Z" fill="white"/>
<path d="M131.26 31.24C130.54 31.24 129.868 31.112 129.244 30.856C128.636 30.6 128.148 30.208 127.78 29.68C127.412 29.136 127.228 28.464 127.228 27.664C127.228 26.496 127.62 25.584 128.404 24.928C129.204 24.256 130.396 23.92 131.98 23.92H135.148V23.656C135.148 23.08 134.956 22.672 134.572 22.432C134.188 22.176 133.468 22.048 132.412 22.048C131.116 22.048 129.844 22.248 128.596 22.648V20.152C129.156 19.928 129.836 19.744 130.636 19.6C131.452 19.456 132.308 19.384 133.204 19.384C134.964 19.384 136.34 19.744 137.332 20.464C138.34 21.184 138.844 22.328 138.844 23.896V31H135.46L135.268 30.04C134.852 30.424 134.316 30.72 133.66 30.928C133.02 31.136 132.22 31.24 131.26 31.24ZM132.484 28.864C133.092 28.864 133.62 28.76 134.068 28.552C134.516 28.344 134.876 28.08 135.148 27.76V26.152H132.412C131.276 26.152 130.708 26.608 130.708 27.52C130.708 27.936 130.852 28.264 131.14 28.504C131.428 28.744 131.876 28.864 132.484 28.864Z" fill="white"/>
<path d="M141.162 31V19.624H144.834L144.954 20.68C145.45 20.376 146.066 20.104 146.802 19.864C147.538 19.608 148.274 19.448 149.01 19.384V22.288C148.594 22.336 148.13 22.416 147.618 22.528C147.122 22.624 146.642 22.744 146.178 22.888C145.73 23.032 145.346 23.184 145.026 23.344V31H141.162Z" fill="white"/>
<path d="M156.093 31.24C154.109 31.24 152.517 30.752 151.317 29.776C150.117 28.784 149.517 27.296 149.517 25.312C149.517 23.504 150.013 22.064 151.005 20.992C151.997 19.92 153.485 19.384 155.469 19.384C157.277 19.384 158.677 19.848 159.669 20.776C160.661 21.704 161.157 22.952 161.157 24.52V26.56H153.093C153.269 27.312 153.677 27.84 154.317 28.144C154.973 28.432 155.861 28.576 156.981 28.576C157.605 28.576 158.237 28.52 158.877 28.408C159.533 28.296 160.077 28.152 160.509 27.976V30.496C159.965 30.752 159.317 30.936 158.565 31.048C157.813 31.176 156.989 31.24 156.093 31.24ZM153.093 24.328H157.797V23.824C157.797 23.264 157.629 22.824 157.293 22.504C156.957 22.168 156.389 22 155.589 22C154.661 22 154.013 22.192 153.645 22.576C153.277 22.944 153.093 23.528 153.093 24.328Z" fill="white"/>
<defs>
<linearGradient id="gradient" x1="0" y1="24" x2="48" y2="24" gradientUnits="userSpaceOnUse">
<stop stop-color="#FFE259"/>
<stop offset="1" stop-color="#FFA751"/>
</linearGradient>
</defs>
</svg>
